<mxfile host="Electron" agent="Mozilla/5.0 (Macintosh; Intel Mac OS X 10_15_7) AppleWebKit/537.36 (KHTML, like Gecko) draw.io/26.2.15 Chrome/134.0.6998.205 Electron/35.2.1 Safari/537.36" version="26.2.15">
  <diagram name="Page-1" id="b0j82j8gsD-EKqvoJbVV">
    <mxGraphModel dx="1219" dy="867" grid="1" gridSize="10" guides="1" tooltips="1" connect="1" arrows="1" fold="1" page="1" pageScale="1" pageWidth="1169" pageHeight="827" math="0" shadow="0">
      <root>
        <mxCell id="0" />
        <mxCell id="1" parent="0" />
        <mxCell id="X8pbhkiyhs-dxLw-5m79-44" value="" style="edgeStyle=orthogonalEdgeStyle;rounded=1;orthogonalLoop=1;jettySize=auto;html=1;curved=0;endArrow=none;startFill=0;" parent="1" source="X8pbhkiyhs-dxLw-5m79-1" target="X8pbhkiyhs-dxLw-5m79-41" edge="1">
          <mxGeometry relative="1" as="geometry" />
        </mxCell>
        <mxCell id="X8pbhkiyhs-dxLw-5m79-78" style="edgeStyle=orthogonalEdgeStyle;rounded=0;orthogonalLoop=1;jettySize=auto;html=1;exitX=1;exitY=0.25;exitDx=0;exitDy=0;endArrow=none;startFill=0;" parent="1" source="X8pbhkiyhs-dxLw-5m79-1" target="X8pbhkiyhs-dxLw-5m79-75" edge="1">
          <mxGeometry relative="1" as="geometry" />
        </mxCell>
        <mxCell id="X8pbhkiyhs-dxLw-5m79-79" style="edgeStyle=orthogonalEdgeStyle;rounded=0;orthogonalLoop=1;jettySize=auto;html=1;exitX=1;exitY=0.75;exitDx=0;exitDy=0;endArrow=none;startFill=0;" parent="1" source="X8pbhkiyhs-dxLw-5m79-1" target="X8pbhkiyhs-dxLw-5m79-27" edge="1">
          <mxGeometry relative="1" as="geometry" />
        </mxCell>
        <mxCell id="X8pbhkiyhs-dxLw-5m79-1" value="&lt;font style=&quot;font-size: 14px;&quot;&gt;restaurant&lt;/font&gt;" style="rounded=0;whiteSpace=wrap;html=1;" parent="1" vertex="1">
          <mxGeometry x="170" y="195" width="80" height="30" as="geometry" />
        </mxCell>
        <mxCell id="X8pbhkiyhs-dxLw-5m79-40" value="" style="edgeStyle=orthogonalEdgeStyle;rounded=1;orthogonalLoop=1;jettySize=auto;html=1;curved=0;endArrow=none;startFill=0;" parent="1" source="X8pbhkiyhs-dxLw-5m79-2" target="X8pbhkiyhs-dxLw-5m79-35" edge="1">
          <mxGeometry relative="1" as="geometry" />
        </mxCell>
        <mxCell id="X8pbhkiyhs-dxLw-5m79-46" value="" style="edgeStyle=orthogonalEdgeStyle;rounded=0;orthogonalLoop=1;jettySize=auto;html=1;curved=1;endArrow=none;startFill=0;" parent="1" source="X8pbhkiyhs-dxLw-5m79-2" target="X8pbhkiyhs-dxLw-5m79-45" edge="1">
          <mxGeometry relative="1" as="geometry" />
        </mxCell>
        <mxCell id="X8pbhkiyhs-dxLw-5m79-2" value="&lt;font style=&quot;font-size: 14px;&quot;&gt;customer&lt;/font&gt;" style="rounded=0;whiteSpace=wrap;html=1;" parent="1" vertex="1">
          <mxGeometry x="540" y="315" width="80" height="30" as="geometry" />
        </mxCell>
        <mxCell id="X8pbhkiyhs-dxLw-5m79-68" style="edgeStyle=orthogonalEdgeStyle;rounded=0;orthogonalLoop=1;jettySize=auto;html=1;exitX=0.5;exitY=1;exitDx=0;exitDy=0;entryX=1;entryY=0.5;entryDx=0;entryDy=0;endArrow=none;startFill=1;startArrow=block;endSize=10;" parent="1" source="X8pbhkiyhs-dxLw-5m79-3" target="X8pbhkiyhs-dxLw-5m79-66" edge="1">
          <mxGeometry relative="1" as="geometry" />
        </mxCell>
        <mxCell id="X8pbhkiyhs-dxLw-5m79-3" value="&lt;font style=&quot;font-size: 14px;&quot;&gt;courier&lt;/font&gt;" style="rounded=0;whiteSpace=wrap;html=1;" parent="1" vertex="1">
          <mxGeometry x="775" y="178" width="80" height="30" as="geometry" />
        </mxCell>
        <mxCell id="X8pbhkiyhs-dxLw-5m79-52" value="" style="edgeStyle=orthogonalEdgeStyle;rounded=0;orthogonalLoop=1;jettySize=auto;html=1;curved=1;endArrow=none;startFill=0;" parent="1" source="X8pbhkiyhs-dxLw-5m79-5" target="X8pbhkiyhs-dxLw-5m79-50" edge="1">
          <mxGeometry relative="1" as="geometry" />
        </mxCell>
        <mxCell id="X8pbhkiyhs-dxLw-5m79-59" value="" style="edgeStyle=orthogonalEdgeStyle;rounded=0;orthogonalLoop=1;jettySize=auto;html=1;endArrow=none;startFill=1;curved=1;startArrow=block;endSize=10;" parent="1" source="X8pbhkiyhs-dxLw-5m79-5" target="X8pbhkiyhs-dxLw-5m79-54" edge="1">
          <mxGeometry relative="1" as="geometry" />
        </mxCell>
        <mxCell id="X8pbhkiyhs-dxLw-5m79-5" value="&lt;font style=&quot;font-size: 14px;&quot;&gt;sub_order&lt;/font&gt;" style="rounded=0;whiteSpace=wrap;html=1;" parent="1" vertex="1">
          <mxGeometry x="217.5" y="495" width="80" height="30" as="geometry" />
        </mxCell>
        <mxCell id="X8pbhkiyhs-dxLw-5m79-6" value="&lt;font style=&quot;font-size: 14px;&quot;&gt;order&lt;/font&gt;" style="rounded=0;whiteSpace=wrap;html=1;" parent="1" vertex="1">
          <mxGeometry x="540" y="495" width="80" height="30" as="geometry" />
        </mxCell>
        <mxCell id="X8pbhkiyhs-dxLw-5m79-57" value="" style="edgeStyle=orthogonalEdgeStyle;rounded=0;orthogonalLoop=1;jettySize=auto;html=1;endArrow=none;startFill=0;curved=1;" parent="1" source="X8pbhkiyhs-dxLw-5m79-7" target="X8pbhkiyhs-dxLw-5m79-54" edge="1">
          <mxGeometry relative="1" as="geometry" />
        </mxCell>
        <mxCell id="X8pbhkiyhs-dxLw-5m79-7" value="&lt;font style=&quot;font-size: 14px;&quot;&gt;dish&lt;/font&gt;" style="rounded=0;whiteSpace=wrap;html=1;" parent="1" vertex="1">
          <mxGeometry x="217.5" y="635" width="80" height="30" as="geometry" />
        </mxCell>
        <mxCell id="FHN3XUaS9ncCvDPtKpWa-19" style="edgeStyle=orthogonalEdgeStyle;rounded=0;orthogonalLoop=1;jettySize=auto;html=1;exitX=1;exitY=0.5;exitDx=0;exitDy=0;endArrow=none;startFill=0;" edge="1" parent="1" source="X8pbhkiyhs-dxLw-5m79-8" target="X8pbhkiyhs-dxLw-5m79-3">
          <mxGeometry relative="1" as="geometry" />
        </mxCell>
        <mxCell id="X8pbhkiyhs-dxLw-5m79-8" value="id" style="ellipse;whiteSpace=wrap;html=1;align=center;fontStyle=4" parent="1" vertex="1">
          <mxGeometry x="722.5" y="90" width="70" height="20" as="geometry" />
        </mxCell>
        <mxCell id="FHN3XUaS9ncCvDPtKpWa-20" style="edgeStyle=orthogonalEdgeStyle;rounded=0;orthogonalLoop=1;jettySize=auto;html=1;exitX=0;exitY=0.5;exitDx=0;exitDy=0;endArrow=none;startFill=0;" edge="1" parent="1" source="X8pbhkiyhs-dxLw-5m79-9" target="X8pbhkiyhs-dxLw-5m79-3">
          <mxGeometry relative="1" as="geometry" />
        </mxCell>
        <mxCell id="X8pbhkiyhs-dxLw-5m79-9" value="user" style="ellipse;whiteSpace=wrap;html=1;align=center;" parent="1" vertex="1">
          <mxGeometry x="837.5" y="90" width="70" height="20" as="geometry" />
        </mxCell>
        <mxCell id="FHN3XUaS9ncCvDPtKpWa-23" style="edgeStyle=orthogonalEdgeStyle;rounded=0;orthogonalLoop=1;jettySize=auto;html=1;exitX=1;exitY=0.5;exitDx=0;exitDy=0;endArrow=none;startFill=0;" edge="1" parent="1" source="X8pbhkiyhs-dxLw-5m79-10" target="X8pbhkiyhs-dxLw-5m79-3">
          <mxGeometry relative="1" as="geometry" />
        </mxCell>
        <mxCell id="X8pbhkiyhs-dxLw-5m79-10" value="base" style="ellipse;whiteSpace=wrap;html=1;align=center;" parent="1" vertex="1">
          <mxGeometry x="722.5" y="140" width="70" height="20" as="geometry" />
        </mxCell>
        <mxCell id="FHN3XUaS9ncCvDPtKpWa-22" style="edgeStyle=orthogonalEdgeStyle;rounded=0;orthogonalLoop=1;jettySize=auto;html=1;exitX=0;exitY=0.5;exitDx=0;exitDy=0;endArrow=none;startFill=0;" edge="1" parent="1" source="X8pbhkiyhs-dxLw-5m79-11" target="X8pbhkiyhs-dxLw-5m79-3">
          <mxGeometry relative="1" as="geometry" />
        </mxCell>
        <mxCell id="X8pbhkiyhs-dxLw-5m79-11" value="pw" style="ellipse;whiteSpace=wrap;html=1;align=center;" parent="1" vertex="1">
          <mxGeometry x="837.5" y="115" width="70" height="20" as="geometry" />
        </mxCell>
        <mxCell id="FHN3XUaS9ncCvDPtKpWa-21" style="edgeStyle=orthogonalEdgeStyle;rounded=0;orthogonalLoop=1;jettySize=auto;html=1;exitX=1;exitY=0.5;exitDx=0;exitDy=0;endArrow=none;startFill=0;" edge="1" parent="1" source="X8pbhkiyhs-dxLw-5m79-12" target="X8pbhkiyhs-dxLw-5m79-3">
          <mxGeometry relative="1" as="geometry" />
        </mxCell>
        <mxCell id="X8pbhkiyhs-dxLw-5m79-12" value="serv_area" style="ellipse;whiteSpace=wrap;html=1;align=center;" parent="1" vertex="1">
          <mxGeometry x="722.5" y="115" width="70" height="20" as="geometry" />
        </mxCell>
        <mxCell id="FHN3XUaS9ncCvDPtKpWa-36" style="edgeStyle=orthogonalEdgeStyle;rounded=0;orthogonalLoop=1;jettySize=auto;html=1;exitX=0;exitY=0.5;exitDx=0;exitDy=0;endArrow=none;startFill=0;" edge="1" parent="1" source="X8pbhkiyhs-dxLw-5m79-13" target="X8pbhkiyhs-dxLw-5m79-6">
          <mxGeometry relative="1" as="geometry">
            <Array as="points">
              <mxPoint x="656" y="484" />
              <mxPoint x="656" y="510" />
            </Array>
          </mxGeometry>
        </mxCell>
        <mxCell id="X8pbhkiyhs-dxLw-5m79-13" value="&lt;u&gt;id&lt;/u&gt;" style="ellipse;whiteSpace=wrap;html=1;align=center;" parent="1" vertex="1">
          <mxGeometry x="692.5" y="474" width="70" height="20" as="geometry" />
        </mxCell>
        <mxCell id="FHN3XUaS9ncCvDPtKpWa-12" style="edgeStyle=orthogonalEdgeStyle;rounded=0;orthogonalLoop=1;jettySize=auto;html=1;exitX=1;exitY=0.5;exitDx=0;exitDy=0;endArrow=none;startFill=0;" edge="1" parent="1" source="X8pbhkiyhs-dxLw-5m79-14" target="X8pbhkiyhs-dxLw-5m79-5">
          <mxGeometry relative="1" as="geometry" />
        </mxCell>
        <mxCell id="X8pbhkiyhs-dxLw-5m79-14" value="&lt;u&gt;id&lt;/u&gt;" style="ellipse;whiteSpace=wrap;html=1;align=center;" parent="1" vertex="1">
          <mxGeometry x="160" y="454" width="70" height="20" as="geometry" />
        </mxCell>
        <mxCell id="FHN3XUaS9ncCvDPtKpWa-16" style="edgeStyle=orthogonalEdgeStyle;rounded=0;orthogonalLoop=1;jettySize=auto;html=1;exitX=1;exitY=0.5;exitDx=0;exitDy=0;endArrow=none;startFill=0;" edge="1" parent="1" source="X8pbhkiyhs-dxLw-5m79-15" target="X8pbhkiyhs-dxLw-5m79-1">
          <mxGeometry relative="1" as="geometry" />
        </mxCell>
        <mxCell id="X8pbhkiyhs-dxLw-5m79-15" value="&lt;u&gt;id&lt;/u&gt;" style="ellipse;whiteSpace=wrap;html=1;align=center;" parent="1" vertex="1">
          <mxGeometry x="120" y="110" width="70" height="20" as="geometry" />
        </mxCell>
        <mxCell id="FHN3XUaS9ncCvDPtKpWa-39" style="edgeStyle=orthogonalEdgeStyle;rounded=0;orthogonalLoop=1;jettySize=auto;html=1;exitX=0;exitY=0.5;exitDx=0;exitDy=0;endArrow=none;startFill=0;" edge="1" parent="1" source="X8pbhkiyhs-dxLw-5m79-16" target="X8pbhkiyhs-dxLw-5m79-7">
          <mxGeometry relative="1" as="geometry" />
        </mxCell>
        <mxCell id="X8pbhkiyhs-dxLw-5m79-16" value="id" style="ellipse;whiteSpace=wrap;html=1;align=center;fontStyle=4" parent="1" vertex="1">
          <mxGeometry x="342.5" y="615" width="70" height="20" as="geometry" />
        </mxCell>
        <mxCell id="FHN3XUaS9ncCvDPtKpWa-26" style="edgeStyle=orthogonalEdgeStyle;rounded=0;orthogonalLoop=1;jettySize=auto;html=1;exitX=0;exitY=0.5;exitDx=0;exitDy=0;endArrow=none;startFill=0;" edge="1" parent="1" source="X8pbhkiyhs-dxLw-5m79-17" target="X8pbhkiyhs-dxLw-5m79-2">
          <mxGeometry relative="1" as="geometry">
            <Array as="points">
              <mxPoint x="637" y="330" />
            </Array>
          </mxGeometry>
        </mxCell>
        <mxCell id="X8pbhkiyhs-dxLw-5m79-17" value="id" style="ellipse;whiteSpace=wrap;html=1;align=center;fontStyle=4" parent="1" vertex="1">
          <mxGeometry x="650" y="280" width="70" height="20" as="geometry" />
        </mxCell>
        <mxCell id="FHN3XUaS9ncCvDPtKpWa-27" style="edgeStyle=orthogonalEdgeStyle;rounded=0;orthogonalLoop=1;jettySize=auto;html=1;exitX=0;exitY=0.5;exitDx=0;exitDy=0;endArrow=none;startFill=0;" edge="1" parent="1" source="X8pbhkiyhs-dxLw-5m79-18" target="X8pbhkiyhs-dxLw-5m79-2">
          <mxGeometry relative="1" as="geometry" />
        </mxCell>
        <mxCell id="X8pbhkiyhs-dxLw-5m79-18" value="user" style="ellipse;whiteSpace=wrap;html=1;align=center;" parent="1" vertex="1">
          <mxGeometry x="692.5" y="305" width="70" height="20" as="geometry" />
        </mxCell>
        <mxCell id="FHN3XUaS9ncCvDPtKpWa-28" style="edgeStyle=orthogonalEdgeStyle;rounded=0;orthogonalLoop=1;jettySize=auto;html=1;exitX=0;exitY=0.5;exitDx=0;exitDy=0;endArrow=none;startFill=0;" edge="1" parent="1" source="X8pbhkiyhs-dxLw-5m79-19" target="X8pbhkiyhs-dxLw-5m79-2">
          <mxGeometry relative="1" as="geometry" />
        </mxCell>
        <mxCell id="X8pbhkiyhs-dxLw-5m79-19" value="pw" style="ellipse;whiteSpace=wrap;html=1;align=center;" parent="1" vertex="1">
          <mxGeometry x="692.5" y="335" width="70" height="20" as="geometry" />
        </mxCell>
        <mxCell id="FHN3XUaS9ncCvDPtKpWa-15" style="edgeStyle=orthogonalEdgeStyle;rounded=0;orthogonalLoop=1;jettySize=auto;html=1;exitX=0;exitY=0.5;exitDx=0;exitDy=0;endArrow=none;startFill=0;" edge="1" parent="1" source="X8pbhkiyhs-dxLw-5m79-20" target="X8pbhkiyhs-dxLw-5m79-1">
          <mxGeometry relative="1" as="geometry" />
        </mxCell>
        <mxCell id="X8pbhkiyhs-dxLw-5m79-20" value="user" style="ellipse;whiteSpace=wrap;html=1;align=center;" parent="1" vertex="1">
          <mxGeometry x="230" y="110" width="70" height="20" as="geometry" />
        </mxCell>
        <mxCell id="FHN3XUaS9ncCvDPtKpWa-14" style="edgeStyle=orthogonalEdgeStyle;rounded=0;orthogonalLoop=1;jettySize=auto;html=1;exitX=0;exitY=0.5;exitDx=0;exitDy=0;endArrow=none;startFill=0;" edge="1" parent="1" source="X8pbhkiyhs-dxLw-5m79-21" target="X8pbhkiyhs-dxLw-5m79-1">
          <mxGeometry relative="1" as="geometry" />
        </mxCell>
        <mxCell id="X8pbhkiyhs-dxLw-5m79-21" value="pw" style="ellipse;whiteSpace=wrap;html=1;align=center;" parent="1" vertex="1">
          <mxGeometry x="230" y="135" width="70" height="20" as="geometry" />
        </mxCell>
        <mxCell id="FHN3XUaS9ncCvDPtKpWa-35" style="edgeStyle=orthogonalEdgeStyle;rounded=0;orthogonalLoop=1;jettySize=auto;html=1;exitX=0;exitY=0.5;exitDx=0;exitDy=0;endArrow=none;startFill=0;" edge="1" parent="1" source="X8pbhkiyhs-dxLw-5m79-22" target="X8pbhkiyhs-dxLw-5m79-6">
          <mxGeometry relative="1" as="geometry" />
        </mxCell>
        <mxCell id="X8pbhkiyhs-dxLw-5m79-22" value="take_away" style="ellipse;whiteSpace=wrap;html=1;align=center;" parent="1" vertex="1">
          <mxGeometry x="692.5" y="525" width="70" height="20" as="geometry" />
        </mxCell>
        <mxCell id="FHN3XUaS9ncCvDPtKpWa-38" style="edgeStyle=orthogonalEdgeStyle;rounded=0;orthogonalLoop=1;jettySize=auto;html=1;exitX=0;exitY=0.5;exitDx=0;exitDy=0;endArrow=none;startFill=0;" edge="1" parent="1" source="X8pbhkiyhs-dxLw-5m79-23" target="X8pbhkiyhs-dxLw-5m79-7">
          <mxGeometry relative="1" as="geometry" />
        </mxCell>
        <mxCell id="X8pbhkiyhs-dxLw-5m79-23" value="price" style="ellipse;whiteSpace=wrap;html=1;align=center;" parent="1" vertex="1">
          <mxGeometry x="330" y="640" width="70" height="20" as="geometry" />
        </mxCell>
        <mxCell id="FHN3XUaS9ncCvDPtKpWa-7" style="edgeStyle=orthogonalEdgeStyle;rounded=0;orthogonalLoop=1;jettySize=auto;html=1;exitX=1;exitY=0.5;exitDx=0;exitDy=0;endArrow=none;startFill=0;" edge="1" parent="1" source="X8pbhkiyhs-dxLw-5m79-24" target="X8pbhkiyhs-dxLw-5m79-5">
          <mxGeometry relative="1" as="geometry" />
        </mxCell>
        <mxCell id="X8pbhkiyhs-dxLw-5m79-24" value="price" style="ellipse;whiteSpace=wrap;html=1;align=center;" parent="1" vertex="1">
          <mxGeometry x="160" y="429" width="70" height="20" as="geometry" />
        </mxCell>
        <mxCell id="FHN3XUaS9ncCvDPtKpWa-37" style="edgeStyle=orthogonalEdgeStyle;rounded=0;orthogonalLoop=1;jettySize=auto;html=1;exitX=0;exitY=0.5;exitDx=0;exitDy=0;endArrow=none;startFill=0;" edge="1" parent="1" source="X8pbhkiyhs-dxLw-5m79-25" target="X8pbhkiyhs-dxLw-5m79-6">
          <mxGeometry relative="1" as="geometry" />
        </mxCell>
        <mxCell id="X8pbhkiyhs-dxLw-5m79-25" value="total_price" style="ellipse;whiteSpace=wrap;html=1;align=center;" parent="1" vertex="1">
          <mxGeometry x="670" y="500" width="70" height="20" as="geometry" />
        </mxCell>
        <mxCell id="FHN3XUaS9ncCvDPtKpWa-13" style="edgeStyle=orthogonalEdgeStyle;rounded=0;orthogonalLoop=1;jettySize=auto;html=1;exitX=1;exitY=0.5;exitDx=0;exitDy=0;endArrow=none;startFill=0;" edge="1" parent="1" source="X8pbhkiyhs-dxLw-5m79-26" target="X8pbhkiyhs-dxLw-5m79-1">
          <mxGeometry relative="1" as="geometry" />
        </mxCell>
        <mxCell id="X8pbhkiyhs-dxLw-5m79-26" value="serv_area" style="ellipse;whiteSpace=wrap;html=1;align=center;" parent="1" vertex="1">
          <mxGeometry x="120" y="135" width="70" height="20" as="geometry" />
        </mxCell>
        <mxCell id="X8pbhkiyhs-dxLw-5m79-29" value="" style="edgeStyle=orthogonalEdgeStyle;rounded=1;orthogonalLoop=1;jettySize=auto;html=1;curved=0;endArrow=none;startFill=0;" parent="1" source="X8pbhkiyhs-dxLw-5m79-27" target="X8pbhkiyhs-dxLw-5m79-2" edge="1">
          <mxGeometry relative="1" as="geometry" />
        </mxCell>
        <mxCell id="X8pbhkiyhs-dxLw-5m79-27" value="fav_rest" style="shape=rhombus;perimeter=rhombusPerimeter;whiteSpace=wrap;html=1;align=center;" parent="1" vertex="1">
          <mxGeometry x="540" y="212" width="80" height="30" as="geometry" />
        </mxCell>
        <mxCell id="FHN3XUaS9ncCvDPtKpWa-25" style="edgeStyle=orthogonalEdgeStyle;rounded=0;orthogonalLoop=1;jettySize=auto;html=1;exitX=0;exitY=0.5;exitDx=0;exitDy=0;endArrow=none;startFill=0;" edge="1" parent="1" source="X8pbhkiyhs-dxLw-5m79-33" target="X8pbhkiyhs-dxLw-5m79-2">
          <mxGeometry relative="1" as="geometry">
            <Array as="points">
              <mxPoint x="637" y="330" />
            </Array>
          </mxGeometry>
        </mxCell>
        <mxCell id="X8pbhkiyhs-dxLw-5m79-33" value="base" style="ellipse;whiteSpace=wrap;html=1;align=center;" parent="1" vertex="1">
          <mxGeometry x="650" y="365" width="70" height="20" as="geometry" />
        </mxCell>
        <mxCell id="X8pbhkiyhs-dxLw-5m79-34" value="&lt;font&gt;cuisine&lt;/font&gt;" style="rounded=0;whiteSpace=wrap;html=1;" parent="1" vertex="1">
          <mxGeometry x="170" y="315" width="80" height="30" as="geometry" />
        </mxCell>
        <mxCell id="X8pbhkiyhs-dxLw-5m79-37" value="" style="edgeStyle=orthogonalEdgeStyle;rounded=1;orthogonalLoop=1;jettySize=auto;html=1;curved=0;endArrow=none;startFill=0;" parent="1" source="X8pbhkiyhs-dxLw-5m79-35" target="X8pbhkiyhs-dxLw-5m79-34" edge="1">
          <mxGeometry relative="1" as="geometry" />
        </mxCell>
        <mxCell id="X8pbhkiyhs-dxLw-5m79-35" value="pref." style="shape=rhombus;perimeter=rhombusPerimeter;whiteSpace=wrap;html=1;align=center;" parent="1" vertex="1">
          <mxGeometry x="342.5" y="315" width="80" height="30" as="geometry" />
        </mxCell>
        <mxCell id="X8pbhkiyhs-dxLw-5m79-42" value="" style="edgeStyle=orthogonalEdgeStyle;rounded=1;orthogonalLoop=1;jettySize=auto;html=1;curved=0;endArrow=none;startFill=0;" parent="1" source="X8pbhkiyhs-dxLw-5m79-41" target="X8pbhkiyhs-dxLw-5m79-34" edge="1">
          <mxGeometry relative="1" as="geometry" />
        </mxCell>
        <mxCell id="X8pbhkiyhs-dxLw-5m79-41" value="spec." style="shape=rhombus;perimeter=rhombusPerimeter;whiteSpace=wrap;html=1;align=center;" parent="1" vertex="1">
          <mxGeometry x="170" y="255" width="80" height="30" as="geometry" />
        </mxCell>
        <mxCell id="X8pbhkiyhs-dxLw-5m79-47" value="" style="edgeStyle=orthogonalEdgeStyle;rounded=0;orthogonalLoop=1;jettySize=auto;html=1;curved=1;endArrow=none;startFill=0;" parent="1" source="X8pbhkiyhs-dxLw-5m79-45" target="X8pbhkiyhs-dxLw-5m79-6" edge="1">
          <mxGeometry relative="1" as="geometry" />
        </mxCell>
        <mxCell id="X8pbhkiyhs-dxLw-5m79-45" value="orders" style="shape=rhombus;perimeter=rhombusPerimeter;whiteSpace=wrap;html=1;align=center;" parent="1" vertex="1">
          <mxGeometry x="540" y="385" width="80" height="30" as="geometry" />
        </mxCell>
        <mxCell id="X8pbhkiyhs-dxLw-5m79-53" value="" style="edgeStyle=orthogonalEdgeStyle;rounded=0;orthogonalLoop=1;jettySize=auto;html=1;curved=1;endArrow=open;startFill=0;endFill=0;endSize=10;" parent="1" source="X8pbhkiyhs-dxLw-5m79-50" target="X8pbhkiyhs-dxLw-5m79-6" edge="1">
          <mxGeometry relative="1" as="geometry" />
        </mxCell>
        <mxCell id="X8pbhkiyhs-dxLw-5m79-50" value="includes" style="shape=rhombus;perimeter=rhombusPerimeter;whiteSpace=wrap;html=1;align=center;" parent="1" vertex="1">
          <mxGeometry x="370" y="495" width="80" height="30" as="geometry" />
        </mxCell>
        <mxCell id="X8pbhkiyhs-dxLw-5m79-54" value="includes" style="shape=rhombus;perimeter=rhombusPerimeter;whiteSpace=wrap;html=1;align=center;" parent="1" vertex="1">
          <mxGeometry x="217.5" y="590" width="80" height="30" as="geometry" />
        </mxCell>
        <mxCell id="FHN3XUaS9ncCvDPtKpWa-29" style="edgeStyle=orthogonalEdgeStyle;rounded=0;orthogonalLoop=1;jettySize=auto;html=1;exitX=0.5;exitY=1;exitDx=0;exitDy=0;entryX=0;entryY=0.5;entryDx=0;entryDy=0;endArrow=none;startFill=0;" edge="1" parent="1" source="X8pbhkiyhs-dxLw-5m79-55" target="X8pbhkiyhs-dxLw-5m79-54">
          <mxGeometry relative="1" as="geometry">
            <Array as="points">
              <mxPoint x="195" y="605" />
            </Array>
          </mxGeometry>
        </mxCell>
        <mxCell id="X8pbhkiyhs-dxLw-5m79-55" value="count" style="ellipse;whiteSpace=wrap;html=1;align=center;" parent="1" vertex="1">
          <mxGeometry x="160" y="570" width="70" height="20" as="geometry" />
        </mxCell>
        <mxCell id="X8pbhkiyhs-dxLw-5m79-63" style="edgeStyle=orthogonalEdgeStyle;rounded=0;orthogonalLoop=1;jettySize=auto;html=1;exitX=0.5;exitY=1;exitDx=0;exitDy=0;entryX=0;entryY=0.5;entryDx=0;entryDy=0;endArrow=none;startFill=0;" parent="1" source="X8pbhkiyhs-dxLw-5m79-62" target="X8pbhkiyhs-dxLw-5m79-7" edge="1">
          <mxGeometry relative="1" as="geometry" />
        </mxCell>
        <mxCell id="X8pbhkiyhs-dxLw-5m79-64" style="edgeStyle=orthogonalEdgeStyle;rounded=0;orthogonalLoop=1;jettySize=auto;html=1;exitX=0.5;exitY=0;exitDx=0;exitDy=0;entryX=0;entryY=0.5;entryDx=0;entryDy=0;endArrow=open;startFill=0;endFill=0;endSize=10;" parent="1" source="X8pbhkiyhs-dxLw-5m79-62" target="X8pbhkiyhs-dxLw-5m79-34" edge="1">
          <mxGeometry relative="1" as="geometry" />
        </mxCell>
        <mxCell id="X8pbhkiyhs-dxLw-5m79-62" value="belongs_to" style="shape=rhombus;perimeter=rhombusPerimeter;whiteSpace=wrap;html=1;align=center;" parent="1" vertex="1">
          <mxGeometry x="90" y="495" width="80" height="30" as="geometry" />
        </mxCell>
        <mxCell id="FHN3XUaS9ncCvDPtKpWa-31" style="edgeStyle=orthogonalEdgeStyle;rounded=0;orthogonalLoop=1;jettySize=auto;html=1;exitX=0;exitY=0.5;exitDx=0;exitDy=0;entryX=0.75;entryY=1;entryDx=0;entryDy=0;endArrow=none;startFill=0;" edge="1" parent="1" source="X8pbhkiyhs-dxLw-5m79-66" target="X8pbhkiyhs-dxLw-5m79-5">
          <mxGeometry relative="1" as="geometry" />
        </mxCell>
        <mxCell id="X8pbhkiyhs-dxLw-5m79-66" value="delivers" style="shape=rhombus;perimeter=rhombusPerimeter;whiteSpace=wrap;html=1;align=center;" parent="1" vertex="1">
          <mxGeometry x="712.5" y="565" width="80" height="30" as="geometry" />
        </mxCell>
        <mxCell id="X8pbhkiyhs-dxLw-5m79-73" style="edgeStyle=orthogonalEdgeStyle;rounded=0;orthogonalLoop=1;jettySize=auto;html=1;exitX=0.5;exitY=0;exitDx=0;exitDy=0;entryX=0;entryY=0.5;entryDx=0;entryDy=0;endArrow=open;startFill=0;endFill=0;endSize=10;" parent="1" source="X8pbhkiyhs-dxLw-5m79-72" target="X8pbhkiyhs-dxLw-5m79-1" edge="1">
          <mxGeometry relative="1" as="geometry" />
        </mxCell>
        <mxCell id="X8pbhkiyhs-dxLw-5m79-74" style="edgeStyle=orthogonalEdgeStyle;rounded=0;orthogonalLoop=1;jettySize=auto;html=1;exitX=0.5;exitY=1;exitDx=0;exitDy=0;entryX=0;entryY=0.75;entryDx=0;entryDy=0;endArrow=none;startFill=0;" parent="1" source="X8pbhkiyhs-dxLw-5m79-72" target="X8pbhkiyhs-dxLw-5m79-7" edge="1">
          <mxGeometry relative="1" as="geometry" />
        </mxCell>
        <mxCell id="X8pbhkiyhs-dxLw-5m79-72" value="made_by" style="shape=rhombus;perimeter=rhombusPerimeter;whiteSpace=wrap;html=1;align=center;" parent="1" vertex="1">
          <mxGeometry x="10" y="399" width="80" height="30" as="geometry" />
        </mxCell>
        <mxCell id="X8pbhkiyhs-dxLw-5m79-80" style="edgeStyle=orthogonalEdgeStyle;rounded=0;orthogonalLoop=1;jettySize=auto;html=1;exitX=1;exitY=0.5;exitDx=0;exitDy=0;endArrow=none;startFill=0;" parent="1" source="X8pbhkiyhs-dxLw-5m79-75" target="X8pbhkiyhs-dxLw-5m79-3" edge="1">
          <mxGeometry relative="1" as="geometry" />
        </mxCell>
        <mxCell id="X8pbhkiyhs-dxLw-5m79-75" value="fav_rest" style="shape=rhombus;perimeter=rhombusPerimeter;whiteSpace=wrap;html=1;align=center;" parent="1" vertex="1">
          <mxGeometry x="540" y="178" width="80" height="30" as="geometry" />
        </mxCell>
        <mxCell id="FHN3XUaS9ncCvDPtKpWa-40" style="edgeStyle=orthogonalEdgeStyle;rounded=0;orthogonalLoop=1;jettySize=auto;html=1;exitX=0;exitY=0.5;exitDx=0;exitDy=0;endArrow=none;startFill=0;" edge="1" parent="1" source="X8pbhkiyhs-dxLw-5m79-81" target="X8pbhkiyhs-dxLw-5m79-7">
          <mxGeometry relative="1" as="geometry" />
        </mxCell>
        <mxCell id="X8pbhkiyhs-dxLw-5m79-81" value="image" style="ellipse;whiteSpace=wrap;html=1;align=center;" parent="1" vertex="1">
          <mxGeometry x="342" y="665" width="70" height="20" as="geometry" />
        </mxCell>
        <mxCell id="FHN3XUaS9ncCvDPtKpWa-9" style="edgeStyle=orthogonalEdgeStyle;rounded=0;orthogonalLoop=1;jettySize=auto;html=1;exitX=0;exitY=0.5;exitDx=0;exitDy=0;endArrow=none;startFill=0;" edge="1" parent="1" source="FHN3XUaS9ncCvDPtKpWa-1" target="X8pbhkiyhs-dxLw-5m79-5">
          <mxGeometry relative="1" as="geometry" />
        </mxCell>
        <mxCell id="FHN3XUaS9ncCvDPtKpWa-1" value="rest_rating" style="ellipse;whiteSpace=wrap;html=1;align=center;" vertex="1" parent="1">
          <mxGeometry x="280" y="429" width="70" height="20" as="geometry" />
        </mxCell>
        <mxCell id="FHN3XUaS9ncCvDPtKpWa-11" style="edgeStyle=orthogonalEdgeStyle;rounded=0;orthogonalLoop=1;jettySize=auto;html=1;exitX=0;exitY=0.5;exitDx=0;exitDy=0;endArrow=none;startFill=0;" edge="1" parent="1" source="FHN3XUaS9ncCvDPtKpWa-2" target="X8pbhkiyhs-dxLw-5m79-5">
          <mxGeometry relative="1" as="geometry" />
        </mxCell>
        <mxCell id="FHN3XUaS9ncCvDPtKpWa-2" value="cour_rating" style="ellipse;whiteSpace=wrap;html=1;align=center;" vertex="1" parent="1">
          <mxGeometry x="280" y="454" width="70" height="20" as="geometry" />
        </mxCell>
        <mxCell id="FHN3XUaS9ncCvDPtKpWa-18" style="edgeStyle=orthogonalEdgeStyle;rounded=0;orthogonalLoop=1;jettySize=auto;html=1;exitX=1;exitY=0.5;exitDx=0;exitDy=0;endArrow=none;startFill=0;" edge="1" parent="1" source="FHN3XUaS9ncCvDPtKpWa-17" target="X8pbhkiyhs-dxLw-5m79-1">
          <mxGeometry relative="1" as="geometry" />
        </mxCell>
        <mxCell id="FHN3XUaS9ncCvDPtKpWa-17" value="base" style="ellipse;whiteSpace=wrap;html=1;align=center;" vertex="1" parent="1">
          <mxGeometry x="120" y="160" width="70" height="20" as="geometry" />
        </mxCell>
        <mxCell id="FHN3XUaS9ncCvDPtKpWa-42" style="edgeStyle=orthogonalEdgeStyle;rounded=0;orthogonalLoop=1;jettySize=auto;html=1;exitX=1;exitY=0.5;exitDx=0;exitDy=0;entryX=0;entryY=0.25;entryDx=0;entryDy=0;endArrow=none;startFill=0;" edge="1" parent="1" source="FHN3XUaS9ncCvDPtKpWa-41" target="X8pbhkiyhs-dxLw-5m79-3">
          <mxGeometry relative="1" as="geometry" />
        </mxCell>
        <mxCell id="FHN3XUaS9ncCvDPtKpWa-41" value="fav_cour" style="shape=rhombus;perimeter=rhombusPerimeter;whiteSpace=wrap;html=1;align=center;" vertex="1" parent="1">
          <mxGeometry x="540" y="140" width="80" height="30" as="geometry" />
        </mxCell>
        <mxCell id="FHN3XUaS9ncCvDPtKpWa-43" style="edgeStyle=orthogonalEdgeStyle;rounded=0;orthogonalLoop=1;jettySize=auto;html=1;exitX=0;exitY=0.5;exitDx=0;exitDy=0;entryX=0.853;entryY=0.025;entryDx=0;entryDy=0;entryPerimeter=0;endArrow=none;startFill=0;" edge="1" parent="1" source="FHN3XUaS9ncCvDPtKpWa-41" target="X8pbhkiyhs-dxLw-5m79-1">
          <mxGeometry relative="1" as="geometry">
            <Array as="points">
              <mxPoint x="370" y="155" />
              <mxPoint x="370" y="170" />
              <mxPoint x="238" y="170" />
            </Array>
          </mxGeometry>
        </mxCell>
      </root>
    </mxGraphModel>
  </diagram>
</mxfile>
